<svg width="90" height="90" viewBox="0 0 90 90" fill="none" xmlns="http://www.w3.org/2000/svg">
<path d="M46.8632 32.0274L50.5546 27.1828C50.5546 27.1828 51.2929 26.0438 51.989 26.1211C52.6781 26.1985 53.8031 28.3922 56.5734 28.1742C59.4984 27.9422 62.2546 27.1828 62.2546 27.1828L64.5609 30.4172L64.1671 32.5406C64.1671 32.5406 63.2952 35.1563 63.7874 36.893C64.2163 38.4188 65.714 39.375 65.7351 40.0711C65.7702 40.9922 21.403 84.8039 20.939 85.1133C20.4749 85.4227 15.8624 84.8039 15.3984 84.5719C14.9343 84.3399 7.3968 75.7266 7.3968 75.7266C7.3968 75.7266 7.08039 71.9297 7.46711 71.2406C7.51633 71.1563 7.79758 70.875 8.02258 70.6992C11.2288 68.2031 23.3366 63.3516 32.632 54.1899C36.6327 50.2383 46.8632 32.0274 46.8632 32.0274Z" fill="#D06F1D"/>
<path d="M78.5811 11.6297V8.35312C78.5811 8.35312 80.0365 5.30156 80.3881 4.85156C80.7396 4.40156 83.6014 3.84609 85.6123 6.00469C87.6232 8.16328 87.2576 10.2656 87.0678 10.575C86.8498 10.9266 83.2217 13.1555 83.2217 13.1555L78.5811 11.6297Z" fill="#AF570C"/>
<path d="M50.5617 27.1758C50.85 27.0351 52.5938 29.693 54.6961 29.7984C56.7985 29.9039 60.307 29.693 60.307 29.693L62.086 32.4422L61.9805 34.3265C61.9805 34.3265 61.5516 36.3726 61.9805 37.6664C62.4094 38.9601 63.1688 39.607 63.2742 40.0922C63.3797 40.5773 21.375 82.8984 21.0024 83.0109C20.6227 83.1164 16.207 83.0672 15.8836 82.8C15.5602 82.5328 9.43595 75.6492 9.16876 75.164C8.90157 74.6789 7.90314 71.318 8.01564 70.7203C8.10704 70.1367 50.1961 27.3586 50.5617 27.1758Z" fill="#EB8B34"/>
<path d="M59.182 27.7453C59.182 27.5836 78.2578 8.71875 78.2578 8.71875L82.8984 13.5703L63.9422 32.8711C63.9422 32.8711 58.0359 33.8484 58.0922 33.5813C58.1484 33.307 59.182 27.7453 59.182 27.7453Z" fill="#474C4F"/>
<path d="M69.5391 17.3602L71.7398 15.1664L76.5914 19.9969L74.3344 22.2961L69.5391 17.3602ZM73.807 13.1273L78.5953 17.9438L83.5031 13.0008C83.5031 13.0008 78.7781 8.07188 78.6445 8.2125C78.532 8.325 73.807 13.1273 73.807 13.1273Z" fill="#E0E0E0"/>
<path d="M39.649 51.8133C40.0638 52.2633 41.2521 51.2719 42.0818 50.625C42.4263 50.3578 48.3888 45.6047 53.7607 41.0555C59.1326 36.5062 64.1107 33.0187 64.1459 32.6039C64.181 32.1891 59.6388 27.7734 59.1818 27.7453C58.7178 27.7172 54.7662 32.2031 50.5756 37.3219C45.9138 43.0172 41.0904 48.9727 40.9287 49.1766C40.099 50.2734 39.3256 51.4617 39.649 51.8133Z" fill="#AF570C"/>
</svg>
